<?xml version="1.0" encoding="UTF-8" standalone="no"?>
<!-- Created with Inkscape (http://www.inkscape.org/) -->

<svg
   xmlns:dc="http://purl.org/dc/elements/1.1/"
   xmlns:cc="http://creativecommons.org/ns#"
   xmlns:rdf="http://www.w3.org/1999/02/22-rdf-syntax-ns#"
   xmlns:svg="http://www.w3.org/2000/svg"
   xmlns="http://www.w3.org/2000/svg"
   xmlns:xlink="http://www.w3.org/1999/xlink"
   xmlns:sodipodi="http://sodipodi.sourceforge.net/DTD/sodipodi-0.dtd"
   xmlns:inkscape="http://www.inkscape.org/namespaces/inkscape"
   width="570"
   height="265"
   id="svg2"
   version="1.1">
  <g
     inkscape:label="Layer 1"
     inkscape:groupmode="layer"
     id="layer1"
     transform="translate(-163.39281,-269.8662)">
    <path
       id="path4991"
       d="m 536.74148,270.2211 c -73.07641,0 -132.30224,59.26649 -132.30224,132.32256 0,73.05606 59.22583,132.32255 132.30224,132.32255 73.0764,0 132.30224,-59.26649 132.30224,-132.32255 0,-73.05607 -59.22584,-132.32256 -132.30224,-132.32256"
       style="fill:#387f46;fill-rule:nonzero;stroke:none" />
    <path
       id="path4995"
       d="m 672.13923,362.14102 0,-2.07454 1.38303,0 c 0.73219,0 1.50506,0.0813 1.50506,0.95591 0,1.07795 -0.81355,1.11863 -1.66777,1.11863 z m 0,0.83388 1.17964,0 1.7898,3.01011 1.1593,0 -1.95251,-3.01011 c 1.01693,-0.12203 1.76946,-0.67117 1.76946,-1.91183 0,-1.38302 -0.7932,-1.93217 -2.46095,-1.93217 l -2.60334,0 0,6.85411 1.11862,0 z m 1.22032,5.55244 c 3.23382,0 5.99987,-2.54233 5.99987,-5.95921 0,-3.43723 -2.76605,-5.97955 -5.99987,-5.97955 -3.29485,0 -6.02021,2.54232 -6.02021,5.97955 0,3.41688 2.72536,5.95921 6.02021,5.95921 m -4.86091,-5.95921 c 0,-2.88808 2.1152,-5.0033 4.86091,-5.0033 2.66434,0 4.82023,2.11522 4.82023,5.0033 0,2.86774 -2.15589,5.02363 -4.82023,5.02363 -2.74571,0 -4.86091,-2.15589 -4.86091,-5.02363"
       style="fill:#387f46;fill-rule:nonzero;stroke:none" />
    <path
       id="path4999"
       d="m 628.18547,442.97863 -0.38643,-0.7932 -11.93872,-21.3352 -11.87772,21.3352 -0.50847,0.7932 -20.88769,0 0,8.33883 -29.10446,0 -1.34235,-12.08113 c -6.24393,10.10829 -13.05734,14.58278 -22.06732,14.58278 -9.68116,0 -16.10814,-3.09147 -19.64703,-10.88115 l -22.04699,0 0,-59.46988 c 0,-6.67106 -0.87456,-9.45745 -4.55583,-9.45745 -4.1084,0 -4.9016,2.74571 -4.9016,9.37609 l 0,59.55124 -24.95539,0 0,-58.85972 c 0,-6.91513 -0.93557,-10.06761 -4.55585,-10.06761 -4.16939,0 -5.00327,3.03045 -5.00327,10.06761 l 0,58.85972 -24.81302,0 0,-85.56431 24.44692,0 0.42711,8.46086 c 5.3287,-7.74901 10.57606,-10.37269 17.45049,-10.37269 8.68454,0 14.50138,3.37621 15.80303,11.40996 5.73549,-8.46086 11.1252,-11.40996 18.69114,-11.40996 8.39982,0 12.60989,2.11521 14.5624,8.82695 1.62709,-18.63016 11.20653,-23.47075 35.59246,-23.47075 20.21651,0 30.20272,4.35246 34.04672,16.04716 l 24.62997,0 0.44745,0.79321 10.20996,18.54881 10.16926,-18.54881 0.40677,-0.79321 29.61293,0 -1.19998,2.17623 -22.51477,39.51791 24.20288,42.24308 1.22031,2.17623 z"
       style="fill:#a4c266;fill-rule:nonzero;stroke:none" />
    <path
       id="path5003"
       d="m 537.57536,414.22005 0,6.67106 c 0,9.41677 1.28133,13.70822 7.26086,13.70822 6.06089,0 7.17951,-4.29145 7.17951,-13.70822 l 0,-20.76571 c -10.94213,1.09828 -14.44037,4.29144 -14.44037,14.09465"
       style="fill:#387f46;fill-rule:nonzero;stroke:none" />
    <path
       id="path5007"
       d="m 582.46246,368.81615 c 0.10169,1.11862 0.12203,2.2169 0.12203,3.49824 l 0,55.56486 16.79965,-29.30772 0,-0.0407 0,-0.0814 z"
       style="fill:#387f46;fill-rule:nonzero;stroke:none" />
    <path
       id="path5011"
       d="m 225.50672,388.04223 -24.08085,0 0,-5.28804 c 0,-7.54562 -1.76945,-11.08454 -6.87442,-11.08454 -5.10497,0 -6.30495,4.06772 -6.30495,12.28452 l 0,37.72811 c 0,8.23693 1.01693,12.28432 6.14224,12.28432 5.12533,0 6.3253,-4.04739 6.3253,-12.28432 l 0,-7.05749 24.79268,0 0,6.83377 c 0,19.54519 -8.94896,27.63996 -30.40613,27.63996 -24.99607,0 -31.70778,-10.57608 -31.70778,-39.55838 l 0,-13.40315 c 0,-29.02318 6.71171,-39.55858 31.70778,-39.55858 21.45717,0 30.40613,8.03375 30.40613,27.61982 z"
       style="fill:#387f46;fill-rule:nonzero;stroke:none" />
    <path
       style="fill:#387f46;fill-rule:nonzero;stroke:none"
       d="m 257.50545,446.9528 -24.79276,0 0,-88.26935 24.79276,0 z m 0,-100.39095 -24.79276,0 0,-20.41996 24.79276,0 z"
       id="path5013" />
    <path
       id="path5017"
       d="m 326.62193,446.9528 -24.99607,0 0,-61.72747 c 0,-7.03715 -0.85422,-10.6981 -5.32871,-10.6981 -4.1694,0 -5.57276,3.31519 -5.57276,10.6981 l 0,61.72747 -24.79268,0 0,-88.26935 24.10117,0 0.69151,10.16931 c 5.57276,-8.25748 11.6133,-12.26418 18.83349,-12.26418 13.89122,0 17.06405,8.21679 17.06405,25.9724 z"
       style="fill:#387f46;fill-rule:nonzero;stroke:none" />
    <path
       id="path5021"
       d="m 365.35253,370.64255 c -5.41005,0 -6.69138,4.21009 -6.69138,12.99637 l 0,9.01 13.4031,0 0,-9.01 c 0,-8.62357 -1.22032,-12.99637 -6.71172,-12.99637 m 30.6502,36.01947 -37.34158,0 0,15.03023 c 0,8.21679 1.28133,12.26418 6.34562,12.26418 5.61344,0 7.05748,-4.04739 7.05748,-12.26418 l 0,-3.2135 23.93848,0 0,2.96944 c 0,19.34201 -9.00999,27.64016 -30.42648,27.64016 -24.97572,0 -31.68746,-10.71845 -31.68746,-39.55859 l 0,-13.3826 c 0,-28.71811 6.71174,-39.55858 30.95527,-39.55858 24.62999,0 31.15867,10.35235 31.15867,39.55858 z"
       style="fill:#387f46;fill-rule:nonzero;stroke:none" />
    <path
       id="path5025"
       d="m 545.51942,359.63937 c -6.2236,0 -7.83035,3.84399 -7.83035,12.83366 l 0,1.99318 -24.62996,0 c 0.14237,1.76946 0.24406,4.00671 0.24406,6.38632 l 0,11.83707 c 6.61003,-7.42359 18.56908,-9.84388 38.82627,-11.08454 l 0,-7.42359 c 0,-9.3761 -0.61015,-14.5421 -6.61002,-14.5421"
       style="fill:#387f46;fill-rule:nonzero;stroke:none" />
    <path
       id="path5029"
       d="m 225.92366,387.56427 -24.08084,0 0,-5.28803 c 0,-7.46427 -1.72879,-11.00319 -6.89477,-11.00319 -5.04395,0 -6.28461,3.98637 -6.28461,12.24384 l 0,37.64676 c 0,8.31828 1.05761,12.32499 6.1219,12.32499 5.12533,0 6.32531,-4.00671 6.32531,-12.32499 l 0,-7.01682 24.81301,0 0,6.87445 c 0,19.46384 -9.00998,27.5586 -30.42647,27.5586 -24.95539,0 -31.62643,-10.49472 -31.62643,-39.55838 l 0,-13.28111 c 0,-29.06386 6.67104,-39.59926 31.62643,-39.59926 21.41649,0 30.42647,8.1151 30.42647,27.59948 z"
       style="fill:#387f46;fill-rule:nonzero;stroke:none" />
    <path
       style="fill:#387f46;fill-rule:nonzero;stroke:none"
       d="m 257.87154,446.50535 -24.81309,0 0,-88.30982 24.81309,0 z m 0,-100.32994 -24.81309,0 0,-20.41995 24.81309,0 z"
       id="path5031" />
    <path
       id="path5035"
       d="m 326.97989,446.51552 -24.99607,0 0,-61.76814 c 0,-6.99648 -0.85422,-10.65743 -5.24736,-10.65743 -4.23041,0 -5.63377,3.35587 -5.63377,10.65743 l 0,61.76814 -24.81302,0 0,-88.31002 24.14185,0 0.67117,10.25065 c 5.63377,-8.29815 11.6133,-12.30485 18.77247,-12.30485 13.9319,0 17.10473,8.21679 17.10473,26.01307 z"
       style="fill:#387f46;fill-rule:nonzero;stroke:none" />
    <path
       id="path5039"
       d="m 365.71049,370.16663 c -5.45073,0 -6.63037,4.25077 -6.63037,13.03705 l 0,8.96932 13.34209,0 0,-8.96932 c 0,-8.62357 -1.24066,-13.03705 -6.71172,-13.03705 m 30.62986,36.06014 -37.26023,0 0,14.94888 c 0,8.29815 1.17964,12.30485 6.26427,12.30485 5.61344,0 7.07782,-4.0067 7.07782,-12.30485 l 0,-3.2135 23.91814,0 0,3.05079 c 0,19.34201 -8.98965,27.55881 -30.44681,27.55881 -24.95539,0 -31.66713,-10.63709 -31.66713,-39.55859 l 0,-13.26056 c 0,-28.71812 6.71174,-39.59927 30.95527,-39.59927 24.60966,0 31.15867,10.31167 31.15867,39.59927 l 0,10.47417"
       style="fill:#387f46;fill-rule:nonzero;stroke:none" />
    <path
       id="path5043"
       d="m 628.42344,442.50271 -0.40678,-0.71185 -11.93872,-21.37588 -11.93874,21.37588 -0.40677,0.71185 -20.92836,0 0,8.29815 -29.06379,0 -1.36268,-12.04045 c -6.26427,10.06761 -13.01667,14.5421 -21.96564,14.5421 -9.78285,0 -16.16915,-3.09147 -19.70804,-10.88116 l -22.04699,0 0,-59.4292 c 0,-6.67106 -0.85422,-9.45745 -4.55583,-9.41677 -4.1084,0 -4.9016,2.74571 -4.9016,9.3761 l 0,59.46987 -24.93505,0 0,-58.7987 c 0,-6.85411 -0.93558,-10.04727 -4.57619,-10.04727 -4.18973,-0.0407 -5.00327,3.03045 -5.00327,10.04727 l 0,58.7987 -24.79268,0 0,-85.52363 24.44692,0 0.42711,8.5829 c 5.3287,-7.91172 10.57606,-10.45405 17.47082,-10.45405 8.70488,0 14.46071,3.37621 15.76236,11.45064 5.73549,-8.54222 11.1252,-11.45064 18.6708,-11.45064 8.4405,0 12.63023,2.07454 14.58274,8.78628 1.62709,-18.63016 11.18619,-23.43007 35.57212,-23.43007 20.23685,0 30.20272,4.43381 34.02638,16.08783 l 24.65031,0 0.42711,0.83389 10.20996,18.46745 10.1896,-18.46745 0.36609,-0.83389 29.61293,0 -1.19998,2.17623 -22.57579,39.43656 24.24356,42.28376 1.24065,2.13555 z M 537.02201,269.86904 c -73.0764,0 -132.26156,59.22601 -132.26156,132.20073 0,73.11708 59.18516,132.28188 132.26156,132.28188 73.01539,0 132.20055,-59.1648 132.20055,-132.28188 0,-72.97472 -59.18516,-132.20073 -132.20055,-132.20073 m 45.72106,98.54033 c 0,1.11863 0.061,2.23725 0.061,3.45757 l 0,55.54452 16.8403,-29.36874 -16.90132,-29.63335 m -44.88718,45.33455 0,6.67106 c 0,9.41678 1.28133,13.70822 7.26086,13.70822 5.99987,0 7.17951,-4.29144 7.17951,-13.70822 l 0,-20.72483 c -10.88113,1.09828 -14.44037,4.25077 -14.44037,14.05377 m 7.93204,-54.54793 c -6.20326,0 -7.87102,3.82365 -7.87102,12.87433 l 0,1.95251 -24.56898,0 c 0.14237,1.74912 0.24407,3.96603 0.24407,6.427 l 0,11.79639 c 6.61002,-7.38291 18.54876,-9.84389 38.78562,-11.08454 l 0,-7.38291 c 0,-9.41678 -0.65084,-14.58278 -6.58969,-14.58278"
       style="fill:#387f46;fill-rule:nonzero;stroke:none" />
    <path
       id="path5047"
       d="m 733.39281,378.03157 c 0,7.5863 -2.07454,14.05397 -6.18292,19.46404 l -18.97586,25.30102 c -1.0576,1.36269 -1.54573,2.9491 -1.54573,4.77958 l 0,4.12873 26.70451,0 0,17.75561 -49.68707,0 0,-21.49791 c 0,-3.05079 0.50846,-5.75582 1.48472,-8.3795 0.83388,-1.99319 2.27792,-4.2101 4.3321,-6.91493 l 18.71147,-24.83343 c 1.40337,-2.01353 2.1152,-4.75924 2.1152,-8.09477 l 0,-20.7047 c 0,-1.17964 -0.58982,-1.89149 -1.83048,-1.89149 -1.22031,0 -1.83047,0.71185 -1.83047,1.89149 l 0,24.99615 -22.98256,0 0,-24.22328 c 0.0813,-1.68811 0.28474,-3.07113 0.58982,-4.33212 0.61015,-3.33554 2.01352,-6.1626 4.10837,-8.23714 4.2101,-4.0067 10.94215,-5.99968 20.11484,-5.99968 9.3964,0 16.10812,1.99318 20.11482,5.99968 2.13554,2.07454 3.55924,4.9016 4.29143,8.23714 0.18305,1.26099 0.34575,2.64401 0.46779,4.33212 z"
       style="fill:#387f46;fill-rule:nonzero;stroke:none" />
    <use
       height="1"
       width="1"
       y="0"
       x="0"
       style="opacity:0.44000202;filter:url(#id1427)"
       xlink:href="#id1426"
       id="use8105"
       transform="matrix(0.9999971,0,0,-0.9999971,39.57293,1486.1487)" />
  </g>
</svg>
