<?xml version="1.0" encoding="UTF-8" standalone="no"?>
<!-- Created with Inkscape (http://www.inkscape.org/) -->

<svg
   xmlns:dc="http://purl.org/dc/elements/1.1/"
   xmlns:cc="http://creativecommons.org/ns#"
   xmlns:rdf="http://www.w3.org/1999/02/22-rdf-syntax-ns#"
   xmlns:svg="http://www.w3.org/2000/svg"
   xmlns="http://www.w3.org/2000/svg"
   xmlns:sodipodi="http://sodipodi.sourceforge.net/DTD/sodipodi-0.dtd"
   xmlns:inkscape="http://www.inkscape.org/namespaces/inkscape"
   width="511"
   height="348"
   id="svg2"
   version="1.1">
  <g
     inkscape:label="Layer 1"
     inkscape:groupmode="layer"
     id="layer1"
     transform="translate(28.64718,-51.432609)">
    <path
       style="fill:#297fcb;fill-rule:nonzero;stroke:none"
       d="m -15.645621,335.31533 440.263781,0 20.47167,-100.65921 -440.2433074,0 z"
       id="path4091" />
    <path
       style="fill:#184a91;fill-rule:nonzero;stroke:none"
       d="M 42.12339,51.432609 4.8240038,234.67455 l 0.020472,0 0,0 440.2433046,0 37.25844,-183.241941 z"
       id="path4095" />
    <path
       style="fill:#184a91;fill-rule:nonzero;stroke:none"
       d="m -15.606725,335.31533 -13.040455,64.11728 0.02047,0 440.202358,0 13.04046,-64.11728 z"
       id="path4099" />
    <path
       id="path4105"
       d="m 36.42203,199.67003 26.510815,-31.11694 c 11.464136,11.17753 29.110717,17.0529 47.739935,17.0529 13.16329,0 20.92205,-4.9132 21.27007,-11.4846 0.30708,-11.09565 -18.91582,-12.77433 -36.62382,-17.60564 -19.95988,-5.60924 -41.229948,-19.01818 -35.641181,-47.16673 4.237636,-21.618089 23.542423,-46.798246 72.572081,-46.798246 27.53439,0 47.80135,6.24386 64.44482,17.9946 l 2.68179,-13.408945 48.4155,0 -14.06404,65.755011 56.93172,-65.755011 48.10843,0 26.1628,48.476921 37.6474,-48.476921 55.92861,0 -79.16395,93.268941 -11.77121,58.2419 -47.80136,0 13.44989,-65.09991 -24.56601,-42.21259 -32.09958,35.00656 43.2157,72.30594 -57.60728,0 -33.6759,-60.20718 -11.44367,60.20718 -48.43597,0 6.87848,-34.69948 C 162.38423,213.7136 137.85916,223.54 104.51081,223.54 c -28.189492,0 -54.045214,-8.51621 -68.08878,-23.86997 m 70.93434,-90.32101 c -0.96217,6.83754 5.67066,8.49574 19.32526,11.42319 25.28252,5.30216 50.74928,12.11923 54.02474,37.99542 l 13.77744,-67.781703 -19.3662,22.662143 c -20.57403,-11.48461 -34.35147,-14.104984 -49.02966,-14.104984 -8.16819,0 -17.3395,1.944804 -18.73158,9.805934"
       style="fill:#f9a621;fill-rule:nonzero;stroke:none" />
    <path
       id="path4109"
       d="m 73.287416,280.26701 c -3.173109,-0.75746 -6.387161,-1.12595 -8.82329,-1.39208 l -18.404033,-1.71962 c -6.509992,-0.69603 -9.805931,-1.28971 -11.955457,-3.78726 -1.2283,-1.3716 -1.924337,-3.09122 -1.924337,-4.93367 0,-1.98575 0.777924,-5.69113 5.834427,-8.1682 4.053391,-2.02669 11.013759,-2.76367 16.17262,-2.76367 8.700461,0 15.476584,1.84245 20.758276,5.60924 1.371602,0.96216 2.169997,1.78103 3.295939,2.8865 l 0.818867,0.83934 9.539799,-3.88962 -0.327547,-0.45038 c -2.08811,-2.8865 -3.623486,-4.66754 -6.939896,-6.93989 -6.960369,-4.66754 -15.886018,-6.91943 -27.329683,-6.91943 -12.057814,0 -32.32477,2.62038 -32.32477,20.26696 0,4.79037 1.617262,8.5981 4.954145,11.73027 5.281691,4.79037 11.075175,5.28169 28.209964,6.7147 0.184245,0.0205 0.388962,0.041 0.388962,0.041 13.183757,1.14641 23.562894,2.00622 23.562894,11.01376 0,8.35244 -8.4548,13.32706 -22.682612,13.32706 -10.501968,0 -18.73158,-2.12906 -25.180157,-6.57141 -2.538487,-1.67868 -3.541599,-2.80462 -4.626598,-4.07386 l -0.204717,-0.24566 -9.662629,4.01244 0.307075,0.45038 c 1.903866,2.74321 6.939897,10.03112 21.065351,13.55225 4.667541,1.2283 11.771211,2.02669 17.646581,2.02669 14.923849,0 25.077798,-3.6849 30.216188,-10.95234 2.354242,-3.33688 3.541599,-7.26744 3.541599,-11.62791 0,-12.40583 -9.969704,-16.64347 -15.926961,-18.03554"
       style="fill:#ffffff;fill-rule:nonzero;stroke:none" />
    <path
       id="path4113"
       d="m 162.19384,256.16161 c -4.83131,-4.1148 -10.9114,-5.79348 -21.00393,-5.79348 l -41.516556,0 -0.450376,0 0,68.90765 10.727152,0 0,-27.18638 32.20194,0 c 6.40764,0 17.11432,0 23.19441,-8.47528 2.3133,-3.27546 3.64396,-7.63593 3.64396,-11.9964 0,-5.9982 -2.47708,-11.64838 -6.7966,-15.45611 m -52.36654,3.19358 29.90912,0 c 4.9132,0 11.01376,0 14.82149,3.80773 2.02669,2.0267 3.05028,4.72896 3.05028,7.96348 0,4.03292 -1.82198,7.61547 -4.89273,9.5398 -3.45972,2.35425 -8.14773,2.35425 -11.89404,2.35425 l -30.99412,0 0,-23.66526"
       style="fill:#ffffff;fill-rule:nonzero;stroke:none" />
    <path
       id="path4117"
       d="m 215.65766,248.73244 c -20.63545,0 -41.47561,11.4232 -41.47561,36.97184 0,14.92385 7.59499,23.37865 13.96168,27.80053 7.0832,5.03603 16.56158,7.57452 28.18949,7.57452 20.61498,0 41.39373,-10.89093 41.39373,-35.29316 0,-22.06846 -16.88913,-36.95137 -42.06929,-37.05373 m 31.44449,36.07109 c 0,6.36669 -2.19047,27.02261 -30.76893,27.02261 -11.58696,0 -20.28742,-3.255 -25.77383,-9.66263 -5.09745,-5.75254 -5.8549,-13.16329 -5.8549,-17.07338 0,-19.44809 15.45611,-26.79742 29.90911,-27.18638 10.37914,-0.2866 19.30479,2.72273 25.13922,8.41386 4.83131,4.68801 7.34933,11.07517 7.34933,18.48592"
       style="fill:#ffffff;fill-rule:nonzero;stroke:none" />
    <path
       id="path4121"
       d="m 338.54706,270.83161 c 0,-8.22961 -3.88962,-12.83574 -6.20292,-14.86243 -5.97773,-5.38405 -13.368,-5.50688 -19.30478,-5.60924 l -46.3274,0 -0.4299,0 0,68.92812 10.52244,0 0,-27.20685 32.18146,0 c 0.28661,0.32754 23.03064,27.20685 23.03064,27.20685 l 13.81837,0 c 0,0 -24.19751,-27.73912 -25.18015,-28.86506 5.09744,-0.90075 17.89224,-3.76678 17.89224,-19.59139 m -10.9114,0.38896 c 0,2.74321 -0.73698,5.07698 -2.21094,6.98084 -3.78726,5.01556 -10.58386,5.01556 -15.538,5.01556 l -33.18458,0 0,-23.78808 36.95137,0 0.26613,0 c 4.38094,0.0819 8.8847,0.20472 11.77121,4.79037 1.24877,1.92434 1.94481,4.40141 1.94481,7.00131"
       style="fill:#ffffff;fill-rule:nonzero;stroke:none" />
    <path
       id="path4125"
       d="m 409.51006,250.36403 -65.65265,0 0,8.98707 27.73912,0 0,59.94105 10.50196,0 0,-59.94105 27.86195,0 0,-8.98707 z"
       style="fill:#ffffff;fill-rule:nonzero;stroke:none" />
    <path
       id="path4129"
       d="m 198.58838,356.51989 c -4.15575,2.29283 -6.48952,2.82509 -12.32395,3.64396 l 0,-7.92254 c 3.00934,-0.47085 8.9666,-1.41254 13.38848,-6.71471 l 10.05159,0 0,43.68655 -11.11612,0 0,-32.69326"
       style="fill:#ffffff;fill-rule:nonzero;stroke:none" />
  </g>
</svg>
